<svg xmlns="http://www.w3.org/2000/svg" width="412" height="869" viewBox="0 0 412 869"><defs><style>.a{fill:#00bab3;}.b,.f{fill:none;}.b{stroke:#fff;stroke-width:10px;}.c,.d{fill:#fff;}.d{font-size:18px;font-family:Roboto-Bold, Roboto;font-weight:700;letter-spacing:0.1em;}.e{stroke:none;}</style></defs><rect class="a" width="412" height="869"/><g class="b" transform="translate(105 276)"><rect class="e" width="203" height="351" rx="25"/><rect class="f" x="5" y="5" width="193" height="341" rx="20"/></g><g transform="translate(123.609 266.21)"><path class="c" d="M28.534,34.861v4.208H19.065V64.144H14.858V39.069H5.39V34.861Z" transform="translate(0 -0.048)"/><path class="c" d="M78.043,60.218l2.1,2.1a10.464,10.464,0,0,1,6.314-2.1v4.208a6.325,6.325,0,0,0-6.314,6.313V81.257H75.94V60.218Z" transform="translate(-47.618 -17.163)"/><path class="c" d="M158.8,79.472a10.441,10.441,0,0,1-6.313,2.1,10.532,10.532,0,0,1-7.446-17.968,10.131,10.131,0,0,1,7.446-3.072,10.257,10.257,0,0,1,6.313,2.1l2.1-2.1h2.106v21.04a10.268,10.268,0,0,1-3.073,7.448,10.562,10.562,0,0,1-14.895,0l2.986-2.988a6.311,6.311,0,0,0,10.772-4.46Zm-6.313-2.1a6.319,6.319,0,1,0-4.459-1.851,6.14,6.14,0,0,0,4.459,1.851" transform="translate(-92.182 -17.378)"/><path class="c" d="M229.573,79.472a10.438,10.438,0,0,1-6.31,2.1,10.533,10.533,0,0,1-7.448-17.968,10.136,10.136,0,0,1,7.448-3.072,10.256,10.256,0,0,1,6.31,2.1l2.1-2.1h2.105v21.04a10.259,10.259,0,0,1-3.073,7.448,10.56,10.56,0,0,1-14.894,0l2.986-2.988a6.311,6.311,0,0,0,10.771-4.46Zm-6.31-2.1a6.32,6.32,0,1,0-4.461-1.851,6.137,6.137,0,0,0,4.461,1.851" transform="translate(-139.955 -17.378)"/><path class="c" d="M121.843,34.79a2.1,2.1,0,0,1,2.08,2.082,1.85,1.85,0,0,1-.615,1.429,1.975,1.975,0,0,1-1.465.611,2.091,2.091,0,0,1-2.043-2.041,1.985,1.985,0,0,1,.612-1.468,1.86,1.86,0,0,1,1.43-.614" transform="translate(-77.222 0)"/><rect class="c" width="4.209" height="21.042" transform="translate(42.79 43.055)"/></g><text class="d" transform="translate(105 256)"><tspan x="0" y="0">OLÁ!</tspan></text></svg>